<?xml version="1.0" encoding="utf-8"?>
<!-- Generator: Adobe Illustrator 19.0.1, SVG Export Plug-In . SVG Version: 6.00 Build 0)  -->
<svg version="1.1" id="Layer_1" xmlns="http://www.w3.org/2000/svg" xmlns:xlink="http://www.w3.org/1999/xlink" x="0px" y="0px"
	 viewBox="0 0 55 55" style="enable-background:new 0 0 55 55;" xml:space="preserve">
<style type="text/css">
	.st0{clip-path:url(#SVGID_2_);}
	.st1{opacity:0.4;clip-path:url(#SVGID_4_);fill:#010101;}
	.st2{clip-path:url(#SVGID_6_);}
	.st3{opacity:0.5;clip-path:url(#SVGID_8_);fill:#FFFFFF;}
</style>
<g>
	<defs>
		<circle id="SVGID_1_" cx="27.5" cy="27.5" r="27.5"/>
	</defs>
	<clipPath id="SVGID_2_">
		<use xlink:href="#SVGID_1_"  style="overflow:visible;"/>
	</clipPath>
	<g class="st0">
		<defs>
			<rect id="SVGID_3_" width="55" height="55"/>
		</defs>
		<clipPath id="SVGID_4_">
			<use xlink:href="#SVGID_3_"  style="overflow:visible;"/>
		</clipPath>
		<rect x="-5" y="-5" class="st1" width="65" height="65"/>
	</g>
</g>
<g>
	<defs>
		<path id="SVGID_5_" d="M26.6,39.1l-0.8-0.9l0.7,0.8C26.6,39,26.6,39,26.6,39.1L26.6,39.1L26.6,39.1z M36.1,18h-18
			c-1.7,0-3.1,1.4-3.1,3.2v11.6c0,1.8,1.4,3.2,3.1,3.2h5.7l2,2.2l0.7,0.8c0,0,0.1,0.1,0.1,0.1c1.1,1.1,0.8,1,2-0.2l2.8-2.9l1.2,0
			c0.1,0,0.2,0,0.3,0h3.2c1.7,0,3.1-1.4,3.1-3.2V21.2C39.2,19.5,37.8,18,36.1,18z M42.2,28.3v5.4c0,2.8-2.1,5.1-4.8,5.4
			c-0.1,0-0.2,0-0.3,0c-0.1,0-0.2,0-0.3,0h-4.1l-3.2,3.2c-2.1,2.1-1.9,2.1-3.9,0l-3.1-3.2h-5.3c-2.9,0-5.3-2.4-5.3-5.4V20.4
			c0-2.8,2.1-5.1,4.8-5.4c0.1,0,0.2,0,0.3,0c0.1,0,0.2,0,0.3,0h19.6c2.9,0,5.3,2.4,5.3,5.4V28.3z M23.8,36h-4.2l0,0L23.8,36l2,2.2
			L23.8,36z M35.5,28.2h-2.6c-0.1,1.2-0.5,1.8-1.4,1.8c-1.4,0-1.6-1.4-1.6-2.9c0-2,0.6-3.1,1.5-3.1c0.9,0,1.4,0.6,1.5,1.8h2.6
			c-0.2-2.8-1.6-4.4-4.2-4.4c-2.3,0-4.1,2.1-4.1,5.5c0,3.4,1.7,5.6,4.4,5.6C33.7,32.6,35.2,31,35.5,28.2z M22.6,32.6
			c-2.7,0-4.4-2.2-4.4-5.6c0-3.4,1.8-5.5,4.1-5.5c2.5,0,3.9,1.6,4.2,4.4h-2.6c-0.1-1.2-0.6-1.8-1.5-1.8c-0.9,0-1.5,1-1.5,3.1
			c0,1.5,0.3,2.9,1.6,2.9c0.9,0,1.3-0.6,1.4-1.8h2.6C26.3,31,24.8,32.6,22.6,32.6z"/>
	</defs>
	<clipPath id="SVGID_6_">
		<use xlink:href="#SVGID_5_"  style="overflow:visible;"/>
	</clipPath>
	<g class="st2">
		<defs>
			<rect id="SVGID_7_" width="55" height="55"/>
		</defs>
		<clipPath id="SVGID_8_">
			<use xlink:href="#SVGID_7_"  style="overflow:visible;"/>
		</clipPath>
		<rect x="7" y="10" class="st3" width="40.2" height="38.8"/>
	</g>
</g>
</svg>
